<?xml version="1.0" encoding="UTF-8" standalone="no"?>
<!-- Created with Inkscape (http://www.inkscape.org/) -->

<svg
   xmlns:dc="http://purl.org/dc/elements/1.1/"
   xmlns:cc="http://creativecommons.org/ns#"
   xmlns:rdf="http://www.w3.org/1999/02/22-rdf-syntax-ns#"
   xmlns:svg="http://www.w3.org/2000/svg"
   xmlns="http://www.w3.org/2000/svg"
   xmlns:xlink="http://www.w3.org/1999/xlink"
   xmlns:sodipodi="http://sodipodi.sourceforge.net/DTD/sodipodi-0.dtd"
   xmlns:inkscape="http://www.inkscape.org/namespaces/inkscape"
   width="210mm"
   height="297mm"
   id="svg2"
   version="1.1"
   inkscape:version="0.48.4 r9939"
   sodipodi:docname="fondo-cabecera.svg">
  <defs
     id="defs4">
    <linearGradient
       inkscape:collect="always"
       id="linearGradient3756">
      <stop
         style="stop-color:#000000;stop-opacity:1;"
         offset="0"
         id="stop3758" />
      <stop
         style="stop-color:#000000;stop-opacity:0;"
         offset="1"
         id="stop3760" />
    </linearGradient>
    <linearGradient
       inkscape:collect="always"
       xlink:href="#linearGradient3756"
       id="linearGradient3762"
       x1="-174.94377"
       y1="174.86582"
       x2="443.92223"
       y2="174.86582"
       gradientUnits="userSpaceOnUse" />
    <clipPath
       clipPathUnits="userSpaceOnUse"
       id="clipPath3776">
      <rect
         y="-33.715157"
         x="-311.00107"
         height="222.21529"
         width="850.51605"
         id="rect3778"
         style="opacity:0.13877552;fill:#6a6a6a;fill-opacity:1"
         transform="matrix(0.9653524,-0.26094968,-0.13234789,0.99120333,0,0)" />
    </clipPath>
    <linearGradient
       inkscape:collect="always"
       xlink:href="#linearGradient3756"
       id="linearGradient3783"
       gradientUnits="userSpaceOnUse"
       x1="-174.94377"
       y1="174.86582"
       x2="443.92223"
       y2="174.86582" />
    <clipPath
       clipPathUnits="userSpaceOnUse"
       id="clipPath3791">
      <rect
         style="opacity:0.13877552;fill:#6a6a6a;fill-opacity:1"
         id="rect3793"
         width="258.25632"
         height="89.164696"
         x="55.426704"
         y="173.16614" />
    </clipPath>
    <linearGradient
       inkscape:collect="always"
       xlink:href="#linearGradient3756"
       id="linearGradient3795"
       gradientUnits="userSpaceOnUse"
       x1="-174.94377"
       y1="174.86582"
       x2="443.92223"
       y2="174.86582" />
  </defs>
  <sodipodi:namedview
     id="base"
     pagecolor="#ffffff"
     bordercolor="#666666"
     borderopacity="1.0"
     inkscape:pageopacity="0.0"
     inkscape:pageshadow="2"
     inkscape:zoom="0.76543687"
     inkscape:cx="235.90284"
     inkscape:cy="751.23788"
     inkscape:document-units="px"
     inkscape:current-layer="layer1"
     showgrid="false"
     inkscape:window-width="1366"
     inkscape:window-height="705"
     inkscape:window-x="-8"
     inkscape:window-y="-8"
     inkscape:window-maximized="1" />
  <metadata
     id="metadata7">
    <rdf:RDF>
      <cc:Work
         rdf:about="">
        <dc:format>image/svg+xml</dc:format>
        <dc:type
           rdf:resource="http://purl.org/dc/dcmitype/StillImage" />
        <dc:title></dc:title>
      </cc:Work>
    </rdf:RDF>
  </metadata>
  <g
     inkscape:label="Capa 1"
     inkscape:groupmode="layer"
     id="layer1">
    <g
       id="g3785"
       inkscape:export-filename="C:\wamp\www\imgs\fondo-cabecera.png"
       inkscape:export-xdpi="90"
       inkscape:export-ydpi="90"
       clip-path="url(#clipPath3791)"
       transform="matrix(1.8492812,0,0,1.8492812,-47.072857,-222.79264)">
      <g
         transform="matrix(0.47864247,0,0,0.47864247,-2.3373158,163.56164)"
         inkscape:export-ydpi="90"
         inkscape:export-xdpi="90"
         inkscape:export-filename="C:\wamp\www\imgs\fondo-cabecera.png"
         id="g3780">
        <g
           id="g3861"
           inkscape:export-filename="C:\wamp\www\imgs\fondo-cabecera.png"
           inkscape:export-xdpi="90"
           inkscape:export-ydpi="90">
          <path
             clip-path="url(#clipPath3776)"
             sodipodi:nodetypes="csssssssssssc"
             inkscape:connector-curvature="0"
             id="path2985"
             d="M -76.115848,283.83763 C -81.078351,297.90609 -89.85645,192.46111 2.6599756,161.78629 141.84652,115.63748 118.02991,90.400396 136.0673,38.711876 157.95341,-24.005658 269.59466,101.14439 289.11744,108.58701 317.7679,119.50937 179.16977,201.03461 167.37305,227.77378 151.64987,263.4129 -108.66911,326.17644 -110.69532,288.64606 -116.79105,175.73791 32.777756,143.18399 37.444057,143.88273 142.51081,159.61551 166.27036,102.00281 180.87086,91.09807 c 149.1797,-111.418438 79.56452,101.37055 38.47378,170.23213 -37.12391,62.21379 -302.298676,6.63801 -373.41779,4.39928 C -260.52317,262.37859 -37.330833,227.51301 34.579461,111.55398 95.97402,12.552109 133.59757,9.0427223 207.6816,51.295473 292.5196,99.681597 483.7437,6.2351065 435.82469,89.864897"
             style="fill:none;stroke:url(#linearGradient3795);stroke-width:1px;stroke-linecap:butt;stroke-linejoin:miter;stroke-opacity:1;opacity:0.66"
             transform="translate(203.79405,4.9106997)" />
        </g>
      </g>
    </g>
    <path
       style="opacity:0.13877552;fill:#6a6a6a;fill-opacity:1"
       id="path3853"
       d="m 88.817912,425.13402 c 5.263498,-5.62725 11.521148,-10.29964 17.501368,-15.14131 7.63544,-6.21298 14.87498,-12.89323 22.48363,-19.13913 3.79584,-3.11599 9.94655,-7.88765 13.81619,-10.91299 2.31952,-1.78629 4.68915,-3.50933 6.95857,-5.35886 5.72354,-4.66457 11.93499,-10.2847 17.37082,-15.22564 9.21858,-8.37931 18.13019,-17.01691 26.95284,-25.80925 9.80882,-9.68428 18.71349,-20.22565 28.34829,-30.07574 5.36075,-5.48054 8.23579,-8.09118 13.79226,-13.33673 11.68563,-11.05722 24.38148,-21.07629 38.02158,-29.62627 2.75879,-1.72928 5.60773,-3.31038 8.41159,-4.96557 7.7751,-4.08173 15.71148,-8.14601 24.09536,-10.8672 8.61078,-2.79484 17.52493,-4.15383 26.44223,-5.49441 10.08783,-1.45975 20.22194,-0.39486 30.32274,0.14371 10.69059,0.57002 8.07898,0.42255 19.00295,0.44672 18.32084,-0.61887 36.67453,-2.18365 54.73083,-5.42964 2.60634,-0.46855 5.193,-1.04063 7.7895,-1.56095 5.81143,-1.33279 11.71204,-2.63109 16.86808,-5.75853 1.41753,-0.85981 3.07071,-2.15821 4.40448,-3.16702 2.13359,-1.75998 1.12286,-0.89257 3.03938,-2.59385 1.82928,-1.62183 4.12289,0.96517 2.29361,2.58699 l 0,0 c -2.04903,1.81453 -0.96841,0.88955 -3.24955,2.76593 -1.57266,1.18574 -3.16267,2.44114 -4.85404,3.45485 -5.46384,3.27471 -11.67328,4.71303 -17.82312,6.10167 -2.63738,0.52773 -5.26481,1.1079 -7.91215,1.58321 -18.24289,3.27534 -36.78529,4.85813 -55.29526,5.47466 -11.05849,-0.0281 -8.4274,0.12148 -19.20728,-0.45325 -9.85845,-0.5256 -19.74956,-1.58595 -29.59697,-0.17547 -8.66041,1.29788 -17.34446,2.59314 -25.70916,5.30028 -8.20604,2.65578 -15.97386,6.63207 -23.58479,10.61999 -2.75284,1.62326 -5.55012,3.17341 -8.25851,4.86978 -13.4759,8.4405 -26.01687,18.3359 -37.55828,29.25852 -5.47526,5.16783 -8.37671,7.80409 -13.65616,13.20092 -9.65831,9.87303 -18.58251,20.44135 -28.41717,30.14637 -8.86514,8.83379 -17.81921,17.51318 -27.08232,25.93178 -5.58151,5.07265 -11.70614,10.61249 -17.57231,15.39335 -2.26289,1.84423 -4.62575,3.56226 -6.93863,5.34339 -3.77853,2.95399 -10.00197,7.78297 -13.71411,10.83001 -7.62762,6.26096 -14.88382,12.95907 -22.53964,19.18546 -5.76254,4.66533 -11.766719,9.18 -16.910981,14.52862 -1.466823,1.95576 -4.23269,-0.11864 -2.765867,-2.0744 z"
       inkscape:connector-curvature="0" />
    <path
       style="opacity:0.13877552;fill:#6a6a6a;fill-opacity:1"
       id="path3855"
       d="m 243.68613,335.68077 c 9.70909,-2.00654 22.36664,-3.5527 29.38126,-4.62329 13.3521,-2.01848 26.74389,-3.78995 40.06414,-6.01774 3.60197,-0.60242 7.21122,-1.17561 10.7859,-1.9231 8.45595,-1.7682 11.99815,-2.96745 20.18645,-5.35498 7.51549,-2.43701 15.0442,-5.09509 21.81659,-9.24755 1.74848,-1.07208 3.51383,-2.15929 5.04015,-3.52929 4.09051,-3.67155 5.98033,-7.14134 9.04129,-11.69404 8.30678,-14.36686 12.32689,-30.58742 16.85509,-46.41314 1.5565,-5.04451 3.01763,-10.12683 4.90811,-15.06082 0.74918,-1.95529 1.50678,-3.80448 2.58999,-5.59731 0.41949,-0.69432 0.93228,-1.3278 1.39843,-1.99171 2.45303,-3.12937 5.95389,-5.04723 9.32955,-7.01427 6.4054,-3.95213 13.56728,-6.2912 20.63353,-8.73459 6.75834,-2.37255 13.70168,-4.1926 20.45904,-6.56659 3.55237,-1.24802 8.48259,-3.2248 11.93568,-4.58143 10.50027,-4.3798 20.78475,-9.24441 31.05204,-14.13784 2.20688,-1.05179 3.69433,2.06921 1.48744,3.121 l 0,0 c -10.34061,4.92816 -20.69876,9.82708 -31.27537,14.23478 -3.63536,1.42794 -8.41014,3.34469 -12.12996,4.65113 -6.73771,2.36637 -13.65977,4.18337 -20.39905,6.54647 -6.85415,2.36992 -13.81,4.61913 -20.02297,8.45442 -2.94587,1.71584 -6.05752,3.35224 -8.25269,6.03099 -4.56914,6.32132 -5.84502,14.37796 -8.38983,21.59686 -4.62834,16.17513 -8.75825,32.74625 -17.31434,47.39769 -3.53747,5.21101 -5.21092,8.40765 -9.92816,12.59413 -1.63301,1.44928 -3.51486,2.601 -5.37899,3.73772 -6.98944,4.262 -14.73966,7.01743 -22.48843,9.5227 -8.39256,2.44361 -11.87278,3.62668 -20.54684,5.43934 -3.59773,0.75184 -7.23018,1.32852 -10.8553,1.93475 -13.32552,2.22843 -26.72246,4.00133 -40.07988,6.02018 -6.90995,1.05455 -12.66224,1.18885 -29.24394,4.59949 C 92.039244,378.6974 58.741115,387.70624 48.744893,381.17432 18.19631,361.21268 136.60357,353.96275 243.68613,335.68077 z"
       inkscape:connector-curvature="0"
       sodipodi:nodetypes="ccsscssccsccccscscccscccccsscssccsc" />
    <path
       style="opacity:0.13877552;fill:#6a6a6a;fill-opacity:1"
       id="path3857"
       d="m 150.03961,399.3288 c 13.15589,-14.89534 25.18115,-30.8356 36.36428,-47.26028 3.55987,-5.22837 6.96543,-10.56015 10.44815,-15.84023 13.09211,-19.68621 24.86255,-40.32956 39.46832,-58.97977 7.88813,-10.07239 9.06554,-10.76938 17.78792,-19.56476 3.68126,-2.7323 7.22612,-5.65867 11.04378,-8.1969 14.96985,-9.95294 31.78931,-17.10911 48.8457,-22.60072 3.73982,-1.2041 7.53909,-2.21502 11.30863,-3.32254 11.56523,-2.72508 23.34719,-4.4587 35.17583,-5.5198 3.36239,-0.30162 6.72865,-0.67062 10.10452,-0.68439 9.14065,-0.0373 13.39716,0.90565 22.4146,2.19131 10.04457,1.79982 19.83882,4.66024 29.60619,7.55677 2.71966,0.80652 5.41043,1.71486 8.15315,2.43909 7.15658,1.88974 10.34526,2.31014 17.62964,3.61766 9.74036,1.38157 20.29984,2.91787 30.131,1.38466 4.9449,-0.77118 8.24821,-2.07748 12.95907,-3.63729 5.0412,-1.91975 9.83884,-4.30684 14.52073,-6.96234 2.12778,-1.20379 3.8302,1.80535 1.70241,3.00914 l 0,0 c -4.88436,2.75667 -9.87858,5.25543 -15.14007,7.23652 -5.17788,1.7019 -8.32144,2.9656 -13.77579,3.80103 -10.08135,1.54413 -21.01953,0.007 -31.00898,-1.42892 -7.53181,-1.35559 -10.60188,-1.75241 -18.00892,-3.70817 -2.73771,-0.72287 -5.42362,-1.62937 -8.13823,-2.43466 -9.60811,-2.85024 -19.24148,-5.6691 -29.12022,-7.45106 -8.57334,-1.23284 -13.01265,-2.19417 -21.69146,-2.16428 -3.32785,0.0115 -6.64635,0.37518 -9.96098,0.67169 -11.62648,1.04002 -23.20766,2.73788 -34.57849,5.40035 -3.71515,1.09006 -7.45951,2.0851 -11.14545,3.27019 -16.73525,5.38069 -33.21788,12.38772 -47.92636,22.11495 -3.67828,2.43258 -7.09772,5.23557 -10.64658,7.85336 -8.54979,8.60494 -9.71291,9.29449 -17.45511,19.17568 -14.57445,18.60102 -26.30292,39.20333 -39.36888,58.83697 -3.50387,5.31104 -6.93025,10.67402 -10.51161,15.93311 -11.26037,16.53546 -23.37042,32.58105 -36.61697,47.57646 -1.63542,1.81713 -4.20524,-0.4957 -2.56982,-2.31283 z"
       inkscape:connector-curvature="0" />
    <path
       style="opacity:0.13877552;fill:#6a6a6a;fill-opacity:1"
       id="path3859"
       d="m 203.41177,399.36507 c 16.3366,-21.35062 34.10604,-41.55507 51.77017,-61.80381 12.51821,-14.52421 26.01995,-28.19108 40.39016,-40.88563 8.31233,-7.34306 15.68296,-13.37119 24.81969,-19.57138 3.65733,-2.48187 7.50946,-4.6638 11.26419,-6.9957 17.89008,-10.23582 37.78753,-15.91178 57.59719,-21.08076 16.25668,-4.32229 32.56964,-8.43602 48.80043,-12.85434 11.18109,-3.0792 22.34138,-6.28694 33.07207,-10.71192 2.26055,-0.93086 3.57697,2.26605 1.31642,3.1969 l 0,0 c -10.86821,4.46918 -22.15652,7.74415 -33.48044,10.85098 -16.24269,4.42098 -32.56713,8.53883 -48.83572,12.86375 -19.47488,5.07982 -39.04621,10.63595 -56.64702,20.67309 -3.68163,2.28257 -7.45911,4.41732 -11.04488,6.8477 -9.03684,6.12502 -16.29398,12.06087 -24.51723,19.32246 -14.2792,12.60932 -27.69431,26.18636 -40.12955,40.61763 -17.59728,20.17179 -35.29927,40.29925 -51.57941,61.56454 -1.43791,1.97712 -4.23398,-0.0564 -2.79607,-2.03351 z"
       inkscape:connector-curvature="0" />
  </g>
</svg>
